<svg width="32" height="32" viewBox="0 0 32 32" fill="none" xmlns="http://www.w3.org/2000/svg">
<rect width="32" height="32" rx="16" fill="#3B82F6"/>
<path d="M15.9997 23.6059C14.8662 23.6059 13.7438 23.4092 12.6966 23.027C11.6493 22.6447 10.6978 22.0845 9.89628 21.3782C9.09477 20.6719 8.45897 19.8335 8.0252 18.9107C7.59143 17.9879 7.36816 16.9988 7.36816 16L11.6839 16C11.6839 16.4994 11.7956 16.9939 12.0124 17.4553C12.2293 17.9167 12.5472 18.336 12.948 18.6891C13.3487 19.0422 13.8245 19.3224 14.3481 19.5135C14.8717 19.7046 15.4329 19.803 15.9997 19.803V23.6059Z" fill="white"/>
<path d="M16 8.39453C17.1335 8.39453 18.2559 8.59127 19.3031 8.9735C20.3504 9.35573 21.3019 9.91598 22.1034 10.6223C22.9049 11.3285 23.5407 12.167 23.9745 13.0898C24.4083 14.0126 24.6315 15.0017 24.6315 16.0005L20.3158 16.0005C20.3158 15.5011 20.2041 15.0065 19.9872 14.5451C19.7704 14.0837 19.4525 13.6645 19.0517 13.3114C18.651 12.9582 18.1752 12.6781 17.6516 12.487C17.128 12.2959 16.5668 12.1975 16 12.1975L16 8.39453Z" fill="white"/>
<path d="M16 16C17.1335 16 18.2559 16.1967 19.3031 16.579C20.3504 16.9612 21.3019 17.5215 22.1034 18.2277C22.9049 18.934 23.5407 19.7725 23.9745 20.6953C24.4083 21.6181 24.6315 22.6071 24.6315 23.6059L20.3158 23.6059C20.3158 23.1065 20.2041 22.612 19.9872 22.1506C19.7704 21.6892 19.4525 21.27 19.0517 20.9168C18.651 20.5637 18.1752 20.2836 17.6516 20.0925C17.128 19.9013 16.5668 19.803 16 19.803L16 16Z" fill="white"/>
<path d="M15.9997 16.0005C14.8662 16.0005 13.7438 15.8037 12.6966 15.4215C11.6493 15.0393 10.6978 14.479 9.89628 13.7727C9.09477 13.0665 8.45897 12.228 8.0252 11.3052C7.59143 10.3824 7.36816 9.39336 7.36816 8.39453L11.6839 8.39453C11.6839 8.89395 11.7956 9.38847 12.0124 9.84987C12.2293 10.3113 12.5472 10.7305 12.948 11.0836C13.3487 11.4368 13.8245 11.7169 14.3481 11.908C14.8717 12.0991 15.4329 12.1975 15.9997 12.1975V16.0005Z" fill="white"/>
</svg>
